<svg width="16" height="21" viewBox="0 0 16 21" fill="none" xmlns="http://www.w3.org/2000/svg">
<path d="M12.6171 0.884421C9.71556 0.397983 6.73762 0.397983 3.83606 0.884421C2.77602 1.06213 1.93183 1.87593 1.71928 2.93112C0.745572 7.76512 0.692444 12.7394 1.56268 17.5931L1.91699 19.5692C2.02624 20.1785 2.76908 20.4221 3.21789 19.9957L7.49455 15.9329C7.90477 15.5432 8.54841 15.5432 8.95864 15.9329L13.2353 19.9957C13.6841 20.4221 14.4269 20.1785 14.5362 19.5692L14.8905 17.5931C15.7607 12.7394 15.7076 7.76511 14.7339 2.93112C14.5214 1.87593 13.6772 1.06213 12.6171 0.884421Z" fill="white"/>
</svg>
